<svg xmlns="http://www.w3.org/2000/svg" x="0px" y="0px" width="50" height="50" viewBox="0 0 50 50">
  <!-- Human shape -->
  <path 
    d="M 24.875 3.3125 C 20.183594 3.417969 17.214844 5.316406 15.9375 8.25 C 14.722656 11.042969 14.976563 14.5625 15.84375 18.21875 C 15.378906 18.765625 14.996094 19.535156 15.09375 20.6875 L 15.09375 20.75 C 15.261719 21.96875 15.628906 22.828125 16.09375 23.4375 C 16.316406 23.726563 16.632813 23.742188 16.90625 23.90625 C 17.148438 25.269531 17.691406 26.570313 18.3125 27.59375 C 18.34375 27.742188 18.40625 27.878906 18.5 28 C 18.5 28 18.601563 28.128906 18.625 28.15625 C 18.9375 28.625 19.09375 29.277344 19.09375 30 C 19.09375 30.769531 19.082031 31.484375 19 32.28125 C 18.699219 33.039063 17.949219 33.644531 16.75 34.25 C 15.496094 34.882813 13.855469 35.464844 12.1875 36.1875 C 10.519531 36.910156 8.828125 37.777344 7.46875 39.15625 C 6.109375 40.535156 5.136719 42.445313 5 44.9375 L 4.9375 46 L 45.0625 46 L 45 44.9375 C 44.863281 42.445313 43.914063 40.539063 42.5625 39.15625 C 41.210938 37.773438 39.511719 36.910156 37.84375 36.1875 C 36.175781 35.464844 34.523438 34.886719 33.25 34.25 C 32.015625 33.632813 31.242188 33.003906 30.90625 32.21875 C 30.828125 31.273438 30.8125 30.527344 30.8125 29.6875 C 30.8125 29.152344 30.996094 28.667969 31.3125 28.1875 C 31.320313 28.175781 31.335938 28.167969 31.34375 28.15625 C 31.347656 28.148438 31.40625 28.09375 31.40625 28.09375 C 31.53125 27.964844 31.617188 27.800781 31.65625 27.625 C 32.261719 26.585938 32.765625 25.265625 33 23.9375 C 33.3125 23.773438 33.664063 23.753906 33.90625 23.4375 C 34.386719 22.808594 34.667969 21.914063 34.78125 20.6875 C 34.871094 19.628906 34.566406 18.859375 34.09375 18.28125 C 34.613281 16.679688 35.230469 14.117188 35.03125 11.5 C 34.921875 10.0625 34.542969 8.628906 33.6875 7.4375 C 32.914063 6.359375 31.664063 5.621094 30.09375 5.28125 C 29.035156 3.867188 27.113281 3.3125 24.90625 3.3125 Z"
    stroke="transparent" 
    stroke-width="1" 
  />
</svg>